<?xml version="1.0" encoding="utf-8"?>
<!-- Generator: Adobe Illustrator 17.0.0, SVG Export Plug-In . SVG Version: 6.00 Build 0)  -->
<!DOCTYPE svg PUBLIC "-//W3C//DTD SVG 1.1//EN" "http://www.w3.org/Graphics/SVG/1.1/DTD/svg11.dtd">
<svg version="1.1" id="Capa_1" xmlns="http://www.w3.org/2000/svg" xmlns:xlink="http://www.w3.org/1999/xlink" x="0px" y="0px"
	 width="1280px" height="800px" viewBox="0 0 1280 800" enable-background="new 0 0 1280 800" xml:space="preserve">
<g>
	<g>
		<g>
			<g>
				<g>
					<path fill="#545454" d="M1280,0.05c-38.944,22.722-75.446,44.607-109.563,65.656c15.224,33.995,30.591,68.485,46.111,103.479
						c20.482-9.675,41.664-19.588,63.452-29.704V0.05z"/>
					<path fill="#545454" d="M1181.809,185.675c-53.572,25.562-103.01,49.763-148.775,72.717
						c-11.733-27.694-23.148-54.63-34.207-80.857c41.742-28.883,87.661-59.226,138.377-91.125
						C1151.861,118.942,1166.688,152.046,1181.809,185.675z"/>
					<path fill="#545454" d="M1012.434,272.258c-44.18,22.071-85.184,43.092-123.37,63.113
						c-6.796-22.881-13.325-44.869-19.565-66.028c33.029-25.756,69.035-52.651,108.503-80.696
						C989.19,215.63,1000.597,243.514,1012.434,272.258z"/>
					<path fill="#BABABA" d="M840.904,340.682c-13.479,8.174-26.579,16.227-39.329,24.136c-1.014-7.494-2.028-14.848-2.998-22.072
						c11.894-8.815,24.137-17.776,36.752-26.868C837.159,324,839.012,332.267,840.904,340.682z"/>
					<path fill="#7F7F7F" d="M732.659,403.711c-4.489,3.048-8.931,6.09-13.334,9.095c0.38-2.242,0.767-4.469,1.156-6.675
						c4.271-3.162,8.579-6.347,12.932-9.552C733.153,398.935,732.921,401.312,732.659,403.711z"/>
					<path fill="#7F7F7F" d="M654.002,458.325c-4.512,3.134-8.983,6.261-13.416,9.352c1.374-1.542,2.729-3.077,4.085-4.583
						c4.284-3.291,8.605-6.604,12.965-9.93C656.429,454.863,655.226,456.591,654.002,458.325z"/>
					<path fill="#BABABA" d="M584.466,507.042c-3.375,2.37-6.738,4.726-10.075,7.068c1.745-0.457,3.475-0.914,5.192-1.371
						c3.264-2.463,6.543-4.955,9.839-7.453C587.784,505.864,586.131,506.45,584.466,507.042z"/>
					<path fill="#BABABA" d="M524.912,545.151c-7.427,4.819-14.78,9.552-22.062,14.2c5.171,1.028,10.259,2.041,15.263,3.034
						c7.048-5.318,14.139-10.73,21.276-16.249C534.646,545.815,529.821,545.486,524.912,545.151z"/>
					<path fill="#BABABA" d="M467.156,581.632c-6.945,4.262-13.841,8.438-20.689,12.522c5.585,2.799,11.091,5.547,16.524,8.267
						c6.798-4.698,13.614-9.502,20.452-14.407C478.093,585.915,472.668,583.787,467.156,581.632z"/>
					<path fill="#7F7F7F" d="M1280,170.524c-16.167,7.105-32.008,14.094-47.489,20.959c15.071,33.927,30.352,68.28,45.847,103.067
						c0.542-0.187,1.099-0.382,1.642-0.569V170.524z"/>
					<path fill="#7F7F7F" d="M1232.189,310.455c-53.076,18.185-103.32,35.044-150.945,50.698
						c-12.351-29.056-24.33-57.35-36.049-84.871c44.216-20.471,91.594-42.047,142.482-64.825
						C1202.248,243.933,1217.133,276.907,1232.189,310.455z"/>
					<path fill="#7F7F7F" d="M1052.699,375.59c-48.246,15.399-93.929,29.563-137.217,42.656
						c-7.657-25.679-14.996-50.318-22.067-73.972c37.962-18.735,78.569-38.421,122.139-59.103
						C1027.54,314.351,1039.891,344.489,1052.699,375.59z"/>
					<path fill="#7F7F7F" d="M893.362,423.237c-38.166,11.579-74.497,22.317-109.078,32.333
						c-1.321-18.612-2.599-36.395-3.805-53.393c29.692-15.064,61.096-30.784,94.393-47.177
						C880.775,376.84,886.965,399.556,893.362,423.237z"/>
					<path fill="#BABABA" d="M748.517,457.633c-20.675,6.604-40.693,12.936-60.072,19.033c2.42-8.86,4.739-17.448,6.996-25.765
						c17.409-8.31,35.396-16.855,53.998-25.636C749.141,435.723,748.838,446.503,748.517,457.633z"/>
					<path fill="#7F7F7F" d="M651.5,491.087c-23.086,6.668-45.253,13.007-66.538,19.061c7.566-6.033,14.819-11.822,21.79-17.377
						c18.751-9.559,38.196-19.454,58.394-29.677C660.79,472.047,656.244,481.363,651.5,491.087z"/>
					<path fill="#BABABA" d="M560.025,516.887c-17.228,5.083-33.866,9.98-49.924,14.714c9.158-1.264,18.007-2.484,26.565-3.655
						c14.721-7.303,29.854-14.835,45.446-22.588C575.01,509.063,567.653,512.903,560.025,516.887z"/>
					<path fill="#BABABA" d="M485.505,538.562c-15.695,4.547-30.817,8.945-45.383,13.229c11.31,2.834,22.265,5.576,32.883,8.231
						c13.875-6.846,28.103-13.935,42.713-21.26C505.997,538.697,495.932,538.633,485.505,538.562z"/>
					<path fill="#7F7F7F" d="M421.925,554.995c-16.179,4.491-31.63,8.867-46.386,13.172c13.919,7.86,27.425,15.485,40.529,22.874
						c14.933-7.339,30.23-15.013,45.934-23.016C449.121,563.841,435.773,559.493,421.925,554.995z"/>
					<path fill="#7F7F7F" d="M1280,402.141c-10.452-23.252-20.793-46.292-31.001-69.06
						c-57.502,18.538-111.966,35.482-163.596,50.984c13.732,32.49,27.853,66.015,42.513,100.561
						c49.074-9.573,99.833-20.753,152.084-33.468V402.141z"/>
					<path fill="#BABABA" d="M1080.787,484.547c-42.917,8.096-84.527,15.049-124.816,20.982
						c-7.628-24.38-14.956-47.932-22.06-70.663c36.527-9.631,74.589-20.011,114.233-31.269
						C1058.728,429.819,1069.586,456.797,1080.787,484.547z"/>
					<path fill="#BABABA" d="M899.312,509.363c-32.743,4.419-64.505,8.16-95.278,11.337c-1.724-16.941-3.38-33.268-4.976-49.017
						c27.56-6.325,56.117-13.115,85.687-20.404C889.421,470.005,894.29,489.352,899.312,509.363z"/>
					<path fill="#BABABA" d="M746.885,523.919c-25.124,2.256-49.474,4.141-73.054,5.726c2.913-10.709,5.726-21.039,8.449-31.012
						c21.196-4.248,43.086-8.752,65.687-13.564C747.599,497.576,747.265,510.519,746.885,523.919z"/>
					<path fill="#BABABA" d="M624.327,533.671c-22.993,1.071-45.124,1.877-66.402,2.484c7.391-6.34,14.501-12.436,21.353-18.312
						c19.136-3.641,38.972-7.489,59.524-11.572C634.166,515.06,629.346,524.183,624.327,533.671z"/>
					<path fill="#7F7F7F" d="M523.357,538.576c-23.581,0.086-45.937-0.029-67.1-0.179c12.731-1.449,24.924-2.834,36.618-4.162
						c19.228-3.955,39.34-8.074,60.356-12.429C543.721,527.146,533.771,532.729,523.357,538.576z"/>
					<path fill="#7F7F7F" d="M436.339,538.247c-19.302-0.207-37.466-0.407-54.536-0.464c14.56,3.819,28.582,7.496,42.096,11.037
						c16.352-3.541,33.488-7.153,51.434-10.901C462.876,538.026,449.889,538.133,436.339,538.247z"/>
					<path fill="#7F7F7F" d="M366.947,538.047c-14.507,0.093-28.123,0.336-40.878,0.835c13.901,7.668,27.403,15.114,40.523,22.353
						c13.141-3.105,26.911-6.19,41.319-9.324C394.721,547.45,381.075,542.831,366.947,538.047z"/>
					<path fill="#7F7F7F" d="M1280,472.118c-51.166,11.815-100.972,22.031-149.35,30.698c16.116,38.172,32.726,77.73,49.963,118.687
						c32.893-3.477,66.04-7.86,99.387-13.136V472.118z"/>
					<path fill="#7F7F7F" d="M1150.044,620.804c-57.274,5.261-113.59,7.86-168.636,8.153
						c-10.209-33.875-19.932-66.222-29.234-97.127c49.195-5.397,100.154-12.358,152.794-21.132
						C1119.499,546.115,1134.455,582.817,1150.044,620.804z"/>
					<path fill="#7F7F7F" d="M945.07,626.451c-50.148-0.557-98.898-2.977-146.044-6.946c-1.956-25.765-3.841-50.202-5.618-73.433
						c40.985-1.863,83.591-4.747,127.757-8.931C928.786,565.568,936.703,595.317,945.07,626.451z"/>
					<path fill="#545454" d="M773.396,622.424c-51.201-5.397-100.009-12.551-146.246-20.889
						c7.314-19.868,14.175-38.515,20.628-56.042c38.978-0.071,80.058-0.928,123.201-2.963
						C771.736,567.596,772.561,594.182,773.396,622.424z"/>
					<path fill="#BABABA" d="M601.296,589.777c-32.049-5.604-62.517-11.708-91.403-18.083c10.548-8.567,20.603-16.72,30.198-24.501
						c25.615,1.492,52.478,2.741,80.597,3.577C614.527,563.148,608.071,576.135,601.296,589.777z"/>
					<path fill="#BABABA" d="M474.31,563.291c-24.933-5.911-48.353-11.922-70.309-17.833c13.859-1.778,27.132-3.484,39.854-5.112
						c20.184,1.699,41.491,3.406,63.945,4.969C497.142,551.034,485.989,557.016,474.31,563.291z"/>
					<path fill="#BABABA" d="M376.517,538.212c-19.747-5.626-37.973-11.059-54.773-16.12c16,4.091,31.396,8.024,46.224,11.808
						c16.364,1.299,33.811,2.791,52.385,4.326C406.365,538.219,391.768,538.212,376.517,538.212z"/>
					<path fill="#7F7F7F" d="M1280,623.702c-32.447,4.898-64.748,8.91-96.845,12.044c18.64,44.477,38.055,90.674,58.23,138.727
						c12.904-0.786,25.772-1.813,38.615-2.963V623.702z"/>
					<path fill="#545454" d="M1227.981,778.099c-71.894,3.584-144.328,1.556-216.243-5.376
						c-13.436-46.069-26.04-89.524-37.962-130.567c63.48,0.785,128.546-1.599,194.69-7.632
						C1187.513,680.408,1207.296,728.247,1227.981,778.099z"/>
					<path fill="#7F7F7F" d="M985.502,761.615c-61.928-6.625-122.757-16.777-181.933-29.684c-2.356-33.289-4.558-64.595-6.65-94.107
						c51.016,5.733,103.788,9.652,158.038,11.258C964.599,684.67,974.797,722.122,985.502,761.615z"/>
					<path fill="#7F7F7F" d="M756.325,713.719c-47.339-11.337-92.935-24.28-136.583-38.408
						c6.261-20.125,12.204-39.158,17.823-57.199c38.041,7.874,77.725,14.899,118.939,20.803
						C756.444,662.56,756.395,687.461,756.325,713.719z"/>
					<path fill="#7F7F7F" d="M575.808,665.302c-46.377-16.656-89.656-34.354-129.749-52.472
						c15.895-11.958,30.828-23.195,44.882-33.761c34.859,9.688,72.068,19.047,111.618,27.628
						C594.202,625.023,585.297,644.52,575.808,665.302z"/>
				</g>
				<g opacity="0.4">
					<path fill="#545454" d="M485.159,577.755c37.145,10.502,77.016,20.625,119.59,29.856c-8.874,19.911-18.36,41.192-28.533,64.002
						c-50.532-18.619-97.425-38.429-140.533-58.733C453.283,600.393,469.739,588.706,485.159,577.755z"/>
					<path fill="#545454" d="M684.065,610.423c64.453,9.666,132.965,16.755,204.974,20.061
						c9.548,46.525,19.793,96.82,30.966,151.313c-88.746-15.071-174.24-36.995-254.915-63.588
						C671.996,678.959,678.288,643.177,684.065,610.423z"/>
					<path fill="#545454" d="M959.112,635.36c74.654,0.978,151.642-2.349,230.171-10.794
						c23.202,54.814,47.475,112.226,73.004,172.387c-85.969,5.754-173.276,3.091-260.005-6.861
						C986.848,734.836,972.52,683.378,959.112,635.36z"/>
					<path fill="#545454" d="M1280,587.557c-17.676,2.984-35.281,5.74-52.801,8.224c17.063,39.058,34.674,79.315,52.801,120.729
						V587.557z"/>
					<path fill="#545454" d="M337.277,556.945c21.549-4.048,45.187-7.753,71.005-11.451c-23.841-6.475-49.247-13.371-76.377-20.739
						c-26.07-6.154-48.433-11.401-67.572-14.842C289.807,526.339,314.094,541.995,337.277,556.945z"/>
					<path fill="#545454" d="M423.057,544.358c31.517-4.869,66.031-9.845,103.691-15.456c-19.945,8.081-41.651,16.877-65.364,26.486
						c-45.528-9.724-85.396-19.604-120.096-28.335C370.55,533.25,397.732,539.004,423.057,544.358z"/>
					<path fill="#545454" d="M538.171,527.075c42.551-6.489,88.864-13.814,139.109-22.602c-7.378,25.494-15.442,53.4-24.319,84.048
						c-65.515-8.267-124.995-18.833-178.398-30.034C497.685,547.071,518.804,536.641,538.171,527.075z"/>
					<path fill="#545454" d="M692.011,502.509c54.983-9.638,114.418-21.032,178.492-34.86
						c9.488,41.878,19.711,87.118,30.805,136.128c-81.179-0.464-157.656-5.619-228.75-13.764
						C679.644,558.158,686.099,529.102,692.011,502.509z"/>
					<path fill="#545454" d="M888.471,462.023c72.619-16.22,151.177-35.581,236.104-58.826
						c25.101,57.998,51.437,118.916,79.176,182.96c-96.427,13.329-189.828,19.376-279.02,19.676
						C911.677,554.039,899.64,506.25,888.471,462.023z"/>
					<path fill="#898989" d="M1280,391.161c-27.511,7.725-54.464,15.049-80.843,21.974c19.158,42.785,38.798,86.826,59.026,132.137
						c7.249-1.328,14.528-2.713,21.817-4.119V391.161z"/>
					<path fill="#545454" d="M412.244,601.807c20.842-10.916,42.252-22.617,64.345-35.024
						c-17.762-5.133-36.467-10.545-56.188-16.249c-23.181,5.297-44.794,10.445-64.907,15.613
						C375.18,578.519,394.082,590.398,412.244,601.807z"/>
					<path fill="#7F7F7F" d="M499.291,550.419c19.408-10.409,39.477-21.31,60.311-32.661c-11.426,3.084-23.434,6.333-36.072,9.738
						c-23.632,5.968-46.047,11.622-67.291,17.063C471.245,546.6,485.582,548.556,499.291,550.419z"/>
					<path fill="#545454" d="M601.719,494.842c22.652-12.229,46.322-24.987,71.127-38.251
						c-5.001,11.408-10.263,23.416-15.793,36.067c-29.294,7.803-57.138,15.085-83.597,21.938
						C583.355,507.678,592.767,501.103,601.719,494.842z"/>
					<path fill="#545454" d="M728.374,427.263c28.774-15.127,59.208-30.934,91.505-47.411c3.505,20.482,7.164,41.928,11.012,64.409
						c-37.855,10.944-73.8,21.046-107.928,30.42C724.858,458.068,726.658,442.284,728.374,427.263z"/>
					<path fill="#545454" d="M873.065,340.275c49.667-26.729,104.295-55.239,164.759-85.642
						c17.523,41.125,35.724,83.963,54.703,128.589c-68.821,20.625-132.922,38.78-192.669,54.835
						C890.413,403.561,881.511,371.014,873.065,340.275z"/>
					<path fill="#545454" d="M1280,124.573c-26.69,12.718-52.383,25.105-77.106,37.166c-45.158,22.022-87.336,43.079-126.808,63.234
						c21.66,49.174,44.212,100.368,67.664,153.744c43.47-12.884,88.86-26.795,136.25-41.8V124.573z"/>
					<path fill="#BABABA" d="M481.661,617.341c7.642-6.275,15.249-12.708,22.832-19.297c-5.736-2.292-11.563-4.626-17.492-6.989
						c-7.737,5.79-15.46,11.451-23.177,16.962C469.859,611.173,475.802,614.279,481.661,617.341z"/>
					<path fill="#BABABA" d="M563.338,543.245c7.305-7.039,14.633-14.207,21.996-21.503c-4.285,0.564-8.647,1.142-13.095,1.735
						c-7.776,6.525-15.488,12.936-23.147,19.233C553.927,542.902,558.672,543.066,563.338,543.245z"/>
					<path fill="#BABABA" d="M639.622,469.484c18.842-21.646,38.226-44.191,58.522-67.478c-4.099,10.059-8.438,20.618-12.98,31.726
						c-24.598,18.055-47.991,35.474-70.438,52.151C623.438,480.149,631.728,474.688,639.622,469.484z"/>
					<path fill="#BABABA" d="M752.939,352.549c10.626-10.364,21.564-20.903,32.861-31.599c0.778,7.125,1.546,14.396,2.352,21.808
						c-12.229,9.686-24.091,19.222-35.621,28.606C752.675,364.962,752.809,358.694,752.939,352.549z"/>
					<path fill="#BABABA" d="M894.661,225.359c13.907-11.697,28.367-23.596,43.417-35.706c3.944,10.121,7.924,20.393,11.969,30.8
						c-15.863,11.084-31.155,21.969-45.897,32.678C900.925,243.739,897.766,234.479,894.661,225.359z"/>
					<path fill="#BABABA" d="M1143.147,58.478c6.985-4.599,14.082-9.217,21.278-13.877c1.963,4.331,3.866,8.701,5.811,13.059
						c-7.239,4.528-14.371,9.033-21.41,13.498C1146.963,66.909,1145.057,62.686,1143.147,58.478z"/>
				</g>
			</g>
		</g>
	</g>
</g>
</svg>
