<?xml version="1.0" encoding="utf-8"?>
<!-- Generator: Adobe Illustrator 17.0.0, SVG Export Plug-In . SVG Version: 6.00 Build 0)  -->
<!DOCTYPE svg PUBLIC "-//W3C//DTD SVG 1.1//EN" "http://www.w3.org/Graphics/SVG/1.1/DTD/svg11.dtd">
<svg version="1.1" id="Capa_1" xmlns="http://www.w3.org/2000/svg" xmlns:xlink="http://www.w3.org/1999/xlink" x="0px" y="0px"
	 width="1280px" height="800px" viewBox="0 0 1280 800" enable-background="new 0 0 1280 800" xml:space="preserve">
<g>
	<path fill="none" stroke="#7F7F7F" stroke-width="5" stroke-miterlimit="10" d="M0,642.766c0,0,380.169-251.948,630.818-88.312
		S1280,381.727,1280,381.727"/>
	<path opacity="0.95" fill="none" stroke="#7F7F7F" stroke-width="4.6643" stroke-miterlimit="10" d="M0,631.266
		c0,0,380.169-251.948,630.818-88.312S1280,370.227,1280,370.227"/>
	<path opacity="0.9" fill="none" stroke="#7F7F7F" stroke-width="4.3286" stroke-miterlimit="10" d="M0,619.766
		c0,0,380.169-251.948,630.818-88.312S1280,358.727,1280,358.727"/>
	<path opacity="0.85" fill="none" stroke="#7F7F7F" stroke-width="3.9929" stroke-miterlimit="10" d="M0,608.266
		c0,0,380.169-251.948,630.818-88.312S1280,347.227,1280,347.227"/>
	<path opacity="0.8" fill="none" stroke="#7F7F7F" stroke-width="3.6571" stroke-miterlimit="10" d="M0,596.766
		c0,0,380.169-251.948,630.818-88.312S1280,335.727,1280,335.727"/>
	<path opacity="0.75" fill="none" stroke="#7F7F7F" stroke-width="3.3214" stroke-miterlimit="10" d="M0,585.266
		c0,0,380.169-251.948,630.818-88.312S1280,324.227,1280,324.227"/>
	<path opacity="0.7" fill="none" stroke="#7F7F7F" stroke-width="2.9857" stroke-miterlimit="10" d="M0,573.766
		c0,0,380.169-251.948,630.818-88.312S1280,312.727,1280,312.727"/>
	<path opacity="0.65" fill="none" stroke="#7F7F7F" stroke-width="2.65" stroke-miterlimit="10" d="M0,562.266
		c0,0,380.169-251.948,630.818-88.312S1280,301.227,1280,301.227"/>
	<path opacity="0.6" fill="none" stroke="#7F7F7F" stroke-width="2.3143" stroke-miterlimit="10" d="M0,550.766
		c0,0,380.169-251.948,630.818-88.312S1280,289.727,1280,289.727"/>
	<path opacity="0.55" fill="none" stroke="#7F7F7F" stroke-width="1.9786" stroke-miterlimit="10" d="M0,539.266
		c0,0,380.169-251.948,630.818-88.312S1280,278.227,1280,278.227"/>
	<path opacity="0.5" fill="none" stroke="#7F7F7F" stroke-width="1.6429" stroke-miterlimit="10" d="M0,527.766
		c0,0,380.169-251.948,630.818-88.312S1280,266.727,1280,266.727"/>
	<path opacity="0.45" fill="none" stroke="#7F7F7F" stroke-width="1.3071" stroke-miterlimit="10" d="M0,516.266
		c0,0,380.169-251.948,630.818-88.312S1280,255.227,1280,255.227"/>
	<path opacity="0.4" fill="none" stroke="#7F7F7F" stroke-width="0.9714" stroke-miterlimit="10" d="M0,504.766
		c0,0,380.169-251.948,630.818-88.312S1280,243.727,1280,243.727"/>
	<path opacity="0.35" fill="none" stroke="#7F7F7F" stroke-width="0.6357" stroke-miterlimit="10" d="M0,493.266
		c0,0,380.169-251.948,630.818-88.312S1280,232.227,1280,232.227"/>
	<path opacity="0.3" fill="none" stroke="#7F7F7F" stroke-width="0.3" stroke-miterlimit="10" d="M0,481.766
		c0,0,380.169-251.948,630.818-88.312S1280,220.727,1280,220.727"/>
</g>
</svg>
