<?xml version="1.0" encoding="utf-8"?>
<!-- Generator: Adobe Illustrator 17.0.0, SVG Export Plug-In . SVG Version: 6.00 Build 0)  -->
<!DOCTYPE svg PUBLIC "-//W3C//DTD SVG 1.1//EN" "http://www.w3.org/Graphics/SVG/1.1/DTD/svg11.dtd">
<svg version="1.1" id="Capa_1" xmlns="http://www.w3.org/2000/svg" xmlns:xlink="http://www.w3.org/1999/xlink" x="0px" y="0px"
	 width="100px" height="100px" viewBox="0 0 100 100" enable-background="new 0 0 100 100" xml:space="preserve">
<g>
	<g opacity="0.75">
		<polygon fill="#2EAB62" points="18.285,32.883 29.381,32.883 43.861,54.159 43.861,32.883 55.062,32.883 55.062,71.34 
			43.861,71.34 29.46,50.224 29.46,71.34 18.285,71.34 		"/>
		<path fill="#2EAB62" d="M43.889,71.34V32.883h19.805c3.672,0,6.48,0.314,8.421,0.944c1.941,0.63,3.506,1.798,4.695,3.502
			c1.189,1.705,1.784,3.783,1.784,6.23c0,2.134-0.455,3.974-1.366,5.523c-0.909,1.547-2.161,2.802-3.753,3.764
			c-1.013,0.612-2.405,1.12-4.173,1.522c1.415,0.473,2.446,0.945,3.093,1.418c0.437,0.315,1.069,0.988,1.901,2.022
			c0.829,1.032,1.386,1.829,1.664,2.389l5.755,11.143H68.288l-6.352-11.752c-0.804-1.522-1.521-2.509-2.152-2.965
			c-0.856-0.594-1.826-0.891-2.911-0.891h-1.05V71.34H43.889z M55.824,48.466h5.011c0.541,0,1.591-0.175,3.147-0.525
			c0.787-0.158,1.43-0.559,1.929-1.207c0.499-0.647,0.747-1.39,0.747-2.229c0-1.242-0.393-2.194-1.18-2.86
			c-0.787-0.664-2.265-0.996-4.434-0.996h-5.22V48.466z"/>
	</g>
	<g>
		<g>
			<defs>
				<path id="SVGID_1_" d="M34.776,34.912c-0.15,1.271-0.453,2.806-0.975,4.464c-0.52,1.655-1.246,3.397-2.133,5.064
					c-0.877,1.631-1.822,3.026-2.744,4.102c-0.893,1.048-1.754,1.785-2.485,2.267c-1.404,0.92-2.316,0.931-2.313,0.961
					c0.005-0.003,0.18,0.183,0.545,0.401c0.376,0.217,0.958,0.472,1.766,0.449c0.841-0.021,1.943-0.351,3.199-1.303
					c1.312-0.983,2.785-2.658,4.029-4.921c1.288-2.314,2.122-4.865,2.497-7.052c0.381-2.178,0.314-3.939,0.073-5.207
					c-0.234-1.24-0.628-2.023-0.926-2.503c-0.295-0.464-0.503-0.652-0.503-0.658C34.782,30.981,35.068,32.396,34.776,34.912"/>
			</defs>
			<use xlink:href="#SVGID_1_"  overflow="visible" fill="#2EAB62"/>
			<clipPath id="SVGID_2_">
				<use xlink:href="#SVGID_1_"  overflow="visible"/>
			</clipPath>
			
				<rect x="24.122" y="30.974" clip-path="url(#SVGID_2_)" fill="#2EAB62" stroke="#FFFFFF" stroke-width="0.3" stroke-miterlimit="10" width="12.42" height="21.667"/>
			<use xlink:href="#SVGID_1_"  overflow="visible" fill="none" stroke="#FFFFFF" stroke-width="0.3" stroke-miterlimit="10"/>
		</g>
		<g>
			<defs>
				<path id="SVGID_3_" d="M47.412,26.41c-1.944,0.322-3.904,2.069-4.506,3.922c-0.594,1.849,0.329,3.294,2.182,3.228
					c1.991-0.074,4.28-1.843,4.971-3.956c0.623-1.905-0.326-3.245-2.045-3.245C47.823,26.359,47.621,26.376,47.412,26.41"/>
			</defs>
			<use xlink:href="#SVGID_3_"  overflow="visible" fill="#2EAB62"/>
			<clipPath id="SVGID_4_">
				<use xlink:href="#SVGID_3_"  overflow="visible"/>
			</clipPath>
			
				<rect x="42.312" y="26.359" clip-path="url(#SVGID_4_)" fill="#2EAB62" stroke="#FFFFFF" stroke-width="0.3" stroke-miterlimit="10" width="8.369" height="7.267"/>
			<use xlink:href="#SVGID_3_"  overflow="visible" fill="none" stroke="#FFFFFF" stroke-width="0.3" stroke-miterlimit="10"/>
		</g>
		<g>
			<defs>
				<path id="SVGID_5_" d="M56.384,30.811c-1.848,1.253-3.939,2.419-6.058,3.21c-1.985,0.748-3.962,1.153-5.769,1.172
					c-1.685,0.002-3.087-0.341-4.162-0.927c-1.023-0.553-1.767-1.333-2.272-2.129c-0.965-1.528-1.124-3.126-1.148-3.086
					c0.002,0.003-0.116,0.505-0.227,1.365c-0.107,0.858-0.203,2.09-0.053,3.417c0.15,1.356,0.578,2.847,1.502,4.064
					c0.963,1.286,2.537,2.298,4.67,2.494c2.321,0.243,5.031-0.506,7.546-1.838c2.734-1.436,5.151-3.474,7.043-5.479
					c1.981-2.099,3.34-4.086,4.213-5.495c0.884-1.438,1.262-2.26,1.277-2.267v-0.001C62.886,25.311,60.342,28.119,56.384,30.811"/>
			</defs>
			<use xlink:href="#SVGID_5_"  overflow="visible" fill="#2EAB62"/>
			<clipPath id="SVGID_6_">
				<use xlink:href="#SVGID_5_"  overflow="visible"/>
			</clipPath>
			
				<rect x="36.545" y="25.311" clip-path="url(#SVGID_6_)" fill="#2EAB62" stroke="#FFFFFF" stroke-width="0.3" stroke-miterlimit="10" width="26.401" height="15.323"/>
			<use xlink:href="#SVGID_5_"  overflow="visible" fill="none" stroke="#FFFFFF" stroke-width="0.3" stroke-miterlimit="10"/>
		</g>
		<g>
			<defs>
				<path id="SVGID_7_" d="M62.79,43.299c-2.875,0.519-5.105,3.516-5.174,6.813c-0.066,3.382,2.153,6.165,5.176,6.133
					c3.279-0.037,6.075-3.32,5.983-7.222c-0.083-3.43-2.375-5.802-5.12-5.802C63.37,43.221,63.081,43.247,62.79,43.299"/>
			</defs>
			<use xlink:href="#SVGID_7_"  overflow="visible" fill="#2EAB62"/>
			<clipPath id="SVGID_8_">
				<use xlink:href="#SVGID_7_"  overflow="visible"/>
			</clipPath>
			
				<rect x="57.549" y="43.221" clip-path="url(#SVGID_8_)" fill="#2EAB62" stroke="#FFFFFF" stroke-width="0.3" stroke-miterlimit="10" width="11.318" height="13.056"/>
			<use xlink:href="#SVGID_7_"  overflow="visible" fill="none" stroke="#FFFFFF" stroke-width="0.3" stroke-miterlimit="10"/>
		</g>
		<g>
			<defs>
				<path id="SVGID_9_" d="M63.78,29.489c-1.536,0.939-3.638,2.35-5.788,4.339c-2.041,1.887-4.14,4.33-5.74,7.264
					c-1.56,2.842-2.69,6.276-2.862,9.82c-0.207,3.649,0.604,7.185,1.999,10.128c1.493,3.187,3.667,5.78,5.894,7.756
					c2.418,2.148,4.865,3.568,6.687,4.498c1.935,0.976,3.101,1.375,3.108,1.394c0.087-0.023-3.635-3.062-6.843-7.989
					c-1.458-2.248-2.776-4.876-3.625-7.718c-0.817-2.708-1.218-5.652-1.144-8.662c0.098-2.942,0.643-5.776,1.546-8.353
					c0.898-2.588,2.175-4.976,3.525-6.998c2.806-4.204,5.889-6.915,5.818-6.917C66.348,28.066,65.388,28.516,63.78,29.489"/>
			</defs>
			<use xlink:href="#SVGID_9_"  overflow="visible" fill="#2EAB62"/>
			<clipPath id="SVGID_10_">
				<use xlink:href="#SVGID_9_"  overflow="visible"/>
			</clipPath>
			
				<rect x="49.183" y="28.051" clip-path="url(#SVGID_10_)" fill="#2EAB62" stroke="#FFFFFF" stroke-width="0.3" stroke-miterlimit="10" width="17.983" height="46.637"/>
			<use xlink:href="#SVGID_9_"  overflow="visible" fill="none" stroke="#FFFFFF" stroke-width="0.3" stroke-miterlimit="10"/>
		</g>
		<g>
			<defs>
				<path id="SVGID_11_" d="M31.819,60.891c-0.978,2.425-0.208,5.296,1.89,6.407c2.265,1.193,5.035-0.163,5.992-3.01
					c0.916-2.733-0.3-5.533-2.531-6.306c-0.39-0.134-0.789-0.198-1.184-0.198C34.267,57.784,32.588,58.99,31.819,60.891"/>
			</defs>
			<use xlink:href="#SVGID_11_"  overflow="visible" fill="#2EAB62"/>
			<clipPath id="SVGID_12_">
				<use xlink:href="#SVGID_11_"  overflow="visible"/>
			</clipPath>
			
				<rect x="30.841" y="57.784" clip-path="url(#SVGID_12_)" fill="#2EAB62" stroke="#FFFFFF" stroke-width="0.3" stroke-miterlimit="10" width="9.776" height="10.708"/>
			<use xlink:href="#SVGID_11_"  overflow="visible" fill="none" stroke="#FFFFFF" stroke-width="0.3" stroke-miterlimit="10"/>
		</g>
		<g>
			<defs>
				<path id="SVGID_13_" d="M32.966,51.019c-2.077,0.921-3.875,2.329-5.284,3.724c-1.413,1.402-2.474,2.821-3.18,3.842
					c-0.714,1.041-1.072,1.679-1.08,1.681c-0.009,0.054,1.762-1.757,4.37-3.147c1.33-0.708,2.9-1.305,4.571-1.545
					c1.739-0.258,3.624-0.135,5.539,0.446c2.027,0.639,3.946,1.759,5.62,3.262c1.806,1.612,3.332,3.664,4.53,5.775
					c2.678,4.716,3.651,9.292,3.704,9.223c-0.011-0.015,0.137-1.235,0.125-3.407c-0.02-2.077-0.19-4.961-0.983-8.088
					c-0.728-2.887-1.987-5.893-3.968-8.297c-1.782-2.181-4.158-3.82-6.841-4.359c-0.709-0.151-1.42-0.22-2.127-0.22
					C36.205,49.909,34.486,50.338,32.966,51.019"/>
			</defs>
			<use xlink:href="#SVGID_13_"  overflow="visible" fill="#2EAB62"/>
			<clipPath id="SVGID_14_">
				<use xlink:href="#SVGID_13_"  overflow="visible"/>
			</clipPath>
			
				<rect x="23.412" y="49.909" clip-path="url(#SVGID_14_)" fill="#2EAB62" stroke="#FFFFFF" stroke-width="0.3" stroke-miterlimit="10" width="28.48" height="24.441"/>
			<use xlink:href="#SVGID_13_"  overflow="visible" fill="none" stroke="#FFFFFF" stroke-width="0.3" stroke-miterlimit="10"/>
		</g>
		<g>
			<defs>
				<path id="SVGID_15_" d="M28.796,41.63c-0.842,1.647-1.059,3.475-0.483,4.131c0.603,0.685,1.847-0.134,2.778-1.886
					c0.947-1.789,1.146-3.748,0.453-4.326c-0.128-0.106-0.278-0.156-0.441-0.156C30.418,39.393,29.487,40.274,28.796,41.63"/>
			</defs>
			<use xlink:href="#SVGID_15_"  overflow="visible" fill="#2EAB62"/>
			<clipPath id="SVGID_16_">
				<use xlink:href="#SVGID_15_"  overflow="visible"/>
			</clipPath>
			
				<rect x="27.736" y="39.393" clip-path="url(#SVGID_16_)" fill="#2EAB62" stroke="#FFFFFF" stroke-width="0.3" stroke-miterlimit="10" width="4.5" height="7.053"/>
			<use xlink:href="#SVGID_15_"  overflow="visible" fill="none" stroke="#FFFFFF" stroke-width="0.3" stroke-miterlimit="10"/>
		</g>
	</g>
</g>
</svg>
